<?xml version="1.0" encoding="utf-8"?>
<!-- Generator: Adobe Illustrator 16.0.4, SVG Export Plug-In . SVG Version: 6.00 Build 0)  -->
<!DOCTYPE svg PUBLIC "-//W3C//DTD SVG 1.1//EN" "http://www.w3.org/Graphics/SVG/1.1/DTD/svg11.dtd">
<svg version="1.1" id="Layer_1" xmlns="http://www.w3.org/2000/svg" xmlns:xlink="http://www.w3.org/1999/xlink" x="0px" y="0px"
	 width="640px" height="100px" viewBox="0 0 640 100" enable-background="new 0 0 640 100" xml:space="preserve">
<g>
	<g>
		<g>
			<path fill="#FFFFFF" d="M172.44,22.275c-6.837,0-12.942,3.64-16.458,8.942c-3.501-5.365-9.576-8.942-16.465-8.942
				c-10.845,0-19.636,8.792-19.636,19.64c0,6.097,3.309,12.086,7.674,15.689c0.181,0.214,11.152,10.335,20.824,19.247V62.455
				c0-9.831,15.028-9.76,15.028,0v14.519l19.759-18.623c4.842-3.924,8.912-9.555,8.912-16.436
				C192.078,31.067,183.29,22.275,172.44,22.275z M138.339,57.402c-0.268,0.305-0.642,0.459-1.02,0.459
				c-0.319,0-0.642-0.113-0.9-0.342c-5.864-5.196-8.838-10.621-8.838-16.123V41.33c0-4.729,2.886-10.104,6.712-12.507
				c0.636-0.398,1.477-0.205,1.875,0.431c0.4,0.637,0.208,1.477-0.43,1.876c-3.048,1.912-5.436,6.395-5.436,10.2v0.066
				c0,4.689,2.665,9.429,7.921,14.087C138.786,55.981,138.839,56.844,138.339,57.402z M147.094,52.354
				c-0.251,0.444-0.712,0.696-1.19,0.696c-0.224,0-0.453-0.057-0.663-0.173c-3.975-2.227-6.652-6.599-6.669-10.893l0,0v-0.04
				c0.015-4.081,2.266-7.796,5.885-9.698c0.665-0.35,1.488-0.094,1.838,0.571c0.35,0.665,0.092,1.488-0.571,1.838
				c-2.727,1.434-4.423,4.232-4.431,7.309c0.008,3.347,2.128,6.775,5.278,8.539C147.228,50.869,147.461,51.699,147.094,52.354z
				 M156.026,48.878c-3.252,0-5.896-2.638-5.896-5.895c0-3.258,2.644-5.894,5.896-5.894c3.261,0,5.9,2.636,5.9,5.894
				C161.927,46.24,159.288,48.878,156.026,48.878z M166.718,52.878c-0.21,0.116-0.437,0.173-0.664,0.173
				c-0.476,0-0.939-0.252-1.188-0.696c-0.368-0.655-0.133-1.485,0.522-1.851c3.15-1.764,5.27-5.192,5.278-8.539
				c-0.008-3.076-1.705-5.875-4.43-7.309c-0.666-0.35-0.921-1.173-0.57-1.838c0.349-0.665,1.173-0.921,1.837-0.571
				c3.617,1.902,5.869,5.617,5.885,9.698v0.04C173.369,46.279,170.693,50.651,166.718,52.878z M184.378,41.396
				c0,5.502-2.973,10.927-8.836,16.123c-0.259,0.229-0.582,0.342-0.903,0.342c-0.376,0-0.749-0.154-1.02-0.459
				c-0.498-0.559-0.447-1.421,0.116-1.919c5.255-4.658,7.921-9.397,7.921-14.087V41.33c0-3.806-2.387-8.288-5.437-10.2
				c-0.636-0.399-0.827-1.239-0.429-1.876c0.4-0.636,1.238-0.828,1.876-0.431c3.826,2.402,6.711,7.778,6.711,12.507V41.396z"/>
		</g>
	</g>
	<g>
		<path fill="#FFFFFF" d="M360.894,35.293c0-1.128,0.922-2.053,1.998-2.053h13.441c4.41,0,7.947,1.334,10.205,3.591
			c1.746,1.743,2.771,4.258,2.771,7.077v0.104c0,5.899-4.004,9.334-9.59,10.414l8.922,11.485c0.412,0.465,0.668,0.924,0.668,1.488
			c0,1.077-1.025,2.003-2.053,2.003c-0.822,0-1.438-0.461-1.898-1.08l-10.105-13.128h-10.309V67.35c0,1.127-0.922,2.053-2.053,2.053
			c-1.076,0-1.998-0.926-1.998-2.053V35.293z M375.974,51.551c5.387,0,9.232-2.771,9.232-7.384v-0.103
			c0-4.412-3.385-7.078-9.182-7.078h-11.08v14.564H375.974z"/>
		<path fill="#FFFFFF" d="M393.763,66.478l14.57-31.851c0.51-1.13,1.281-1.798,2.564-1.798h0.205c1.23,0,2.055,0.668,2.512,1.798
			l14.572,31.798c0.148,0.362,0.254,0.721,0.254,1.029c0,1.074-0.869,1.948-1.947,1.948c-0.977,0-1.645-0.667-2.002-1.487
			l-3.746-8.26h-19.697l-3.746,8.36c-0.355,0.872-1.023,1.387-1.949,1.387c-1.021,0-1.846-0.824-1.846-1.848
			C393.507,67.25,393.56,66.889,393.763,66.478z M419.157,55.962l-8.26-18.361l-8.258,18.361H419.157z"/>
		<path fill="#FFFFFF" d="M434.181,35.293c0-1.128,0.922-2.053,2-2.053h10.465c11.283,0,19.078,7.745,19.078,17.851v0.104
			c0,10.102-7.795,17.951-19.078,17.951h-10.465c-1.078,0-2-0.925-2-2.052V35.293z M446.646,65.402
			c9.078,0,14.873-6.155,14.873-14.109v-0.099c0-7.951-5.795-14.208-14.873-14.208h-8.414v28.416H446.646z"/>
		<path fill="#FFFFFF" d="M472.642,35.033c0-1.124,0.926-2.05,2.004-2.05c1.127,0,2.047,0.926,2.047,2.05V67.35
			c0,1.127-0.92,2.053-2.047,2.053c-1.078,0-2.004-0.926-2.004-2.053V35.033z"/>
		<path fill="#FFFFFF" d="M483.616,51.293v-0.099c0-9.901,7.439-18.57,18.363-18.57c10.926,0,18.26,8.567,18.26,18.467v0.104
			c0,9.897-7.439,18.567-18.365,18.567C490.95,69.762,483.616,61.192,483.616,51.293z M516.036,51.293v-0.099
			c0-8.157-5.951-14.826-14.162-14.826c-8.205,0-14.049,6.568-14.049,14.723v0.104c0,8.153,5.945,14.822,14.154,14.822
			C510.185,66.017,516.036,59.451,516.036,51.293z"/>
	</g>
	<g>
		<path fill="#FFFFFF" d="M206.951,40.223c3.084,0,5.492-2.019,5.492-5.152c0-3.195-2.408-5.271-5.492-5.271
			c-3.081,0-5.49,2.076-5.49,5.271C201.461,38.204,203.87,40.223,206.951,40.223z M212.099,68.998V45.901
			c0-3.299-3.776-3.63-3.776-3.63h-1.335h-0.078h-1.334c0,0-3.777,0.153-3.777,3.63v23.097H212.099z"/>
		<g>
			<path fill="#FFFFFF" d="M218.98,32.648h10.072v13.597h12.92V32.648h10.068v36.326h-10.068V55.172h-12.92v13.803H218.98V32.648z"
				/>
			<path fill="#FFFFFF" d="M254.686,55.068v-0.104c0-8.199,5.863-14.686,14.167-14.686c9.704,0,14.168,7.108,14.168,15.362
				c0,0.619,0,1.346-0.054,2.022h-18.785c0.779,3.062,3.01,4.619,6.072,4.619c2.335,0,4.201-0.884,6.228-2.855l5.45,4.513
				c-2.699,3.427-6.592,5.71-12.196,5.71C260.915,69.649,254.686,63.786,254.686,55.068z M273.783,52.629
				c-0.365-3.114-2.18-5.086-4.88-5.086c-2.593,0-4.358,2.022-4.876,5.086H273.783z"/>
			<path fill="#FFFFFF" d="M284.225,60.931v-0.103c0-5.812,4.408-8.823,11-8.823c2.594,0,5.139,0.521,6.748,1.092v-0.468
				c0-2.907-1.818-4.565-5.607-4.565c-2.956,0-5.24,0.568-7.732,1.554l-2.023-6.954c3.164-1.296,6.539-2.177,11.362-2.177
				c5.036,0,8.464,1.191,10.692,3.422c2.129,2.076,3.013,4.982,3.013,8.927v16.14h-9.755v-2.903
				c-1.925,2.124-4.57,3.527-8.253,3.527C288.323,69.599,284.225,66.537,284.225,60.931z M302.075,58.804v-1.298
				c-0.985-0.417-2.386-0.726-3.839-0.726c-2.855,0-4.518,1.401-4.518,3.477v0.104c0,1.921,1.453,3.061,3.479,3.061
				C300.049,63.422,302.075,61.605,302.075,58.804z"/>
			<path fill="#FFFFFF" d="M314.633,40.899h9.858v5.656c1.609-3.839,4.203-6.331,8.873-6.123v10.38h-0.83
				c-5.135,0-8.043,2.956-8.043,9.444v8.718h-9.858V40.899z"/>
			<path fill="#FFFFFF" d="M339.435,60.257v-11.42h-3.316v-7.938h3.316v-7.11h9.861v7.11h6.539v7.938h-6.539v9.501
				c0,1.973,0.885,2.8,2.697,2.8c1.299,0,2.545-0.363,3.738-0.931v7.729c-1.764,0.987-4.1,1.611-6.85,1.611
				C342.966,69.548,339.435,66.95,339.435,60.257z"/>
		</g>
	</g>
</g>
</svg>
